<svg width="39" height="40" viewBox="0 0 39 40" fill="none" xmlns="http://www.w3.org/2000/svg">
<path d="M37.7812 8.5547C36.4097 9.16591 34.9586 9.56859 33.4737 9.75001C35.0342 8.81281 36.2078 7.32389 36.7743 5.56251C35.2989 6.44735 33.6874 7.06819 32.0089 7.39845C31.3021 6.63871 30.4521 6.03431 29.5105 5.622C28.5688 5.20969 27.5553 4.99807 26.5314 5.00001C22.3862 5.00001 19.0315 8.39064 19.0315 12.5703C19.0286 13.1517 19.0936 13.7314 19.225 14.2969C16.2526 14.154 13.3419 13.3763 10.6793 12.0135C8.01666 10.6507 5.6607 8.73295 3.76213 6.38283C3.09606 7.53448 2.74381 8.84848 2.74219 10.1875C2.74219 12.8125 4.07748 15.1328 6.09375 16.4922C4.89917 16.4631 3.72906 16.1388 2.68277 15.5469V15.6406C2.68277 19.3125 5.27262 22.3672 8.70035 23.0625C8.05577 23.2388 7.39154 23.328 6.72445 23.3281C6.2511 23.329 5.77883 23.2819 5.31451 23.1875C6.26742 26.1953 9.04084 28.3828 12.3261 28.4453C9.6566 30.5554 6.3791 31.6959 3.00879 31.6875C2.41055 31.6866 1.81286 31.6501 1.21875 31.5781C4.64738 33.8236 8.6329 35.0114 12.7009 35C26.5154 35 34.0625 23.461 34.0625 13.4531C34.0625 13.125 34.0542 12.7969 34.0389 12.4766C35.5038 11.4079 36.7711 10.0798 37.7812 8.5547Z" fill="white"/>
</svg>
